<?xml version="1.0" standalone="no"?>
<!DOCTYPE svg PUBLIC "-//W3C//DTD SVG 20010904//EN"
 "http://www.w3.org/TR/2001/REC-SVG-20010904/DTD/svg10.dtd">
<svg version="1.0" xmlns="http://www.w3.org/2000/svg"
 width="788.000000pt" height="788.000000pt" viewBox="0 0 788.000000 788.000000"
 preserveAspectRatio="xMidYMid meet">
<metadata>
Created by potrace 1.14, written by Peter Selinger 2001-2017
</metadata>
<g transform="translate(0.000000,788.000000) scale(0.100000,-0.100000)"
fill="#000000" stroke="none">
<path d="M6296 7602 c-2 -1 -384 -3 -850 -5 l-847 -2 -22 -40 c-12 -22 -26
-43 -32 -47 -5 -4 -6 -8 -1 -8 5 0 2 -8 -6 -17 -8 -10 -26 -38 -39 -63 -13
-25 -26 -47 -29 -50 -3 -3 -11 -16 -17 -30 -7 -14 -26 -47 -42 -75 -17 -27
-35 -59 -41 -70 -5 -11 -26 -47 -46 -80 -19 -33 -40 -72 -47 -87 -6 -16 -15
-28 -19 -28 -4 0 -8 -6 -8 -14 0 -8 -6 -21 -13 -28 -7 -7 -20 -28 -28 -45 -7
-18 -17 -33 -20 -33 -4 0 -9 -8 -12 -17 -3 -10 -19 -40 -36 -68 -17 -27 -38
-66 -47 -85 -10 -19 -23 -42 -29 -50 -11 -13 -30 -47 -94 -165 -9 -16 -18 -32
-21 -35 -5 -5 -13 -19 -58 -99 -14 -25 -35 -62 -47 -81 -12 -19 -25 -42 -29
-50 -4 -8 -12 -24 -19 -35 -7 -11 -32 -56 -57 -100 -24 -44 -50 -86 -57 -93
-7 -7 -13 -17 -13 -22 0 -5 -14 -32 -30 -60 -25 -43 -28 -54 -19 -73 7 -12 15
-24 18 -27 4 -3 12 -16 19 -30 6 -14 16 -32 22 -40 5 -8 55 -94 111 -190 97
-168 142 -246 164 -282 5 -9 17 -29 26 -45 37 -67 63 -111 94 -163 96 -161
175 -300 175 -309 0 -6 5 -11 10 -11 6 0 10 -4 10 -9 0 -5 41 -77 90 -161 50
-84 90 -153 90 -155 0 -1 32 -56 70 -121 39 -66 74 -126 79 -134 7 -13 129
-15 1001 -15 545 0 995 2 999 5 4 3 44 70 90 150 45 80 87 152 92 160 5 8 41
71 80 140 39 69 85 148 101 175 16 28 32 58 35 68 3 9 9 17 14 17 5 0 9 4 9 9
0 5 23 49 51 98 55 94 83 145 125 221 15 26 30 52 34 57 10 12 50 83 116 205
10 19 22 37 27 38 4 2 7 7 7 11 0 4 39 75 86 157 48 82 89 156 92 164 3 8 12
21 19 28 18 18 17 24 -10 63 -12 19 -32 52 -44 74 -25 48 -169 296 -180 311
-4 5 -13 19 -19 30 -55 100 -160 280 -166 282 -5 2 -8 8 -8 12 0 5 -35 69 -78
142 -43 73 -109 187 -147 253 -37 66 -82 143 -100 170 -17 28 -38 65 -46 83
-8 17 -17 32 -20 32 -4 0 -9 8 -12 18 -4 9 -20 40 -36 67 -17 28 -49 83 -71
122 -23 40 -46 75 -51 79 -10 6 -288 12 -293 6z"/>
<path d="M2030 5643 c0 -4 -176 -8 -390 -8 -215 1 -394 -2 -399 -5 -11 -7
-291 -497 -291 -510 0 -5 -3 -10 -8 -10 -4 0 -18 -21 -32 -47 -13 -27 -41 -76
-62 -111 -21 -34 -38 -64 -38 -66 0 -3 -34 -62 -75 -131 -41 -70 -75 -129 -75
-131 0 -2 -17 -32 -38 -66 -20 -35 -44 -76 -52 -93 -8 -16 -18 -32 -21 -35 -4
-3 -18 -27 -33 -55 -15 -27 -31 -57 -36 -65 -62 -104 -100 -170 -100 -174 0
-2 -28 -51 -62 -108 -34 -56 -61 -110 -60 -119 0 -8 35 -73 76 -143 42 -70 76
-130 76 -133 0 -2 14 -25 32 -51 18 -26 31 -48 30 -50 -1 -1 4 -12 12 -25 13
-21 71 -120 106 -183 10 -17 35 -60 57 -95 21 -35 45 -78 53 -94 8 -17 18 -32
21 -35 3 -3 21 -32 39 -65 18 -33 50 -89 72 -124 21 -34 38 -64 38 -66 0 -1
59 -103 130 -225 72 -122 130 -226 130 -231 0 -5 5 -9 10 -9 6 0 10 -4 10 -10
0 -5 18 -40 40 -77 22 -38 44 -75 49 -83 7 -13 129 -15 1005 -15 l997 0 36 65
c20 36 40 68 45 71 6 3 8 8 7 10 -3 3 105 196 158 284 7 11 15 27 19 35 9 18
90 159 104 180 5 8 18 31 28 50 11 19 35 62 54 95 19 33 44 76 54 95 10 19 22
37 25 40 3 3 12 20 20 38 8 17 17 32 21 32 5 0 8 4 8 9 0 5 31 62 69 128 38
65 82 143 98 173 15 30 34 61 40 68 7 7 16 24 19 38 3 13 9 24 13 24 3 0 15
17 26 38 11 20 39 69 62 109 24 39 43 75 43 78 0 4 9 20 20 36 22 30 20 37
-20 99 -11 16 -376 644 -406 699 -10 18 -23 41 -29 50 -60 98 -135 232 -135
240 0 6 -3 11 -8 11 -4 0 -18 21 -32 48 -13 26 -29 50 -35 54 -6 5 -6 8 0 8 6
0 6 3 0 8 -11 7 -45 64 -93 152 -37 68 -45 82 -73 125 -14 22 -29 47 -33 55
-4 8 -12 24 -19 35 -7 11 -29 50 -50 87 -21 37 -43 70 -48 73 -13 9 -134 9
-147 1 -7 -4 -12 -4 -12 1 0 4 -64 7 -142 5 -79 -1 -161 -2 -183 -1 -22 0 -44
1 -50 0 -8 0 -237 0 -365 0 -8 0 -74 -1 -146 -2 -72 -1 -136 1 -142 5 -7 4
-12 4 -12 -1z"/>
<path d="M5735 3722 c-2 -3 -251 -5 -551 -6 -355 -1 -549 -5 -551 -11 -2 -5
-25 -47 -52 -92 -27 -46 -46 -83 -43 -83 4 0 2 -4 -4 -8 -5 -4 -70 -113 -144
-242 -73 -129 -148 -259 -167 -287 -18 -29 -30 -53 -27 -53 3 0 -3 -12 -14
-27 -10 -16 -31 -48 -44 -73 -14 -25 -52 -90 -83 -145 -32 -55 -68 -118 -80
-140 -13 -22 -62 -107 -109 -189 -47 -82 -86 -150 -86 -151 0 -2 -28 -50 -62
-107 -33 -57 -61 -110 -60 -120 0 -9 12 -35 26 -57 14 -22 26 -45 26 -51 0 -5
4 -10 9 -10 5 0 11 -8 14 -17 7 -20 49 -96 64 -115 6 -7 24 -38 40 -68 17 -30
54 -95 83 -145 29 -49 60 -103 70 -120 9 -16 31 -54 49 -83 17 -29 31 -57 31
-62 0 -6 4 -10 8 -10 5 0 19 -22 32 -50 13 -27 27 -50 32 -50 4 0 8 -5 8 -10
0 -6 63 -119 140 -251 77 -132 140 -243 140 -245 0 -3 5 -10 10 -17 6 -7 51
-82 100 -167 49 -85 94 -162 98 -170 8 -13 130 -15 1002 -15 545 0 995 2 999
5 5 3 46 72 92 153 46 82 92 163 102 180 11 18 29 50 40 72 12 22 27 47 33 55
6 8 24 38 38 65 15 28 32 59 39 70 38 62 54 91 53 95 0 3 9 19 20 35 18 26 41
65 98 170 6 11 13 22 16 25 4 4 18 29 64 115 6 11 13 22 16 25 3 3 12 19 20
35 8 17 19 37 26 45 6 8 26 42 44 75 18 33 51 92 74 130 66 113 86 148 99 175
6 14 14 27 17 30 3 3 27 42 52 88 l47 83 -18 32 c-15 27 -58 100 -96 165 -69
118 -105 183 -105 192 0 5 -4 10 -8 10 -4 0 -19 22 -33 50 -13 27 -27 50 -31
50 -5 0 -8 4 -8 9 0 5 -27 55 -60 111 -33 56 -60 103 -60 106 0 2 -15 27 -33
56 -19 29 -45 73 -59 98 -36 65 -61 108 -97 168 -17 29 -31 57 -31 62 0 6 -3
10 -7 10 -5 0 -13 10 -19 23 -18 37 -66 121 -85 148 -10 15 -23 37 -29 50 -6
13 -19 38 -30 54 -11 17 -28 46 -37 65 -10 19 -22 40 -26 45 -4 6 -30 48 -57
95 -27 47 -55 93 -62 103 -13 19 -78 31 -78 14 0 -4 -6 -5 -12 0 -17 10 -49
10 -70 0 -10 -4 -18 -4 -18 0 0 10 -52 9 -68 -1 -6 -3 -13 -2 -16 3 -3 5 -21
5 -41 1 -19 -4 -35 -5 -35 -1 0 7 -118 6 -126 -2 -3 -3 -16 -2 -28 3 -13 4
-28 5 -35 1 -7 -5 -29 -5 -49 -1 -20 3 -52 3 -70 -1 -18 -3 -34 -3 -37 1 -2 4
-23 4 -45 0 -22 -4 -43 -3 -46 1 -3 5 -12 5 -20 1 -9 -5 -35 -6 -60 -2 -24 4
-46 5 -49 2z"/>
</g>
</svg>
