<svg width="234" height="90" xmlns="http://www.w3.org/2000/svg" xmlns:xlink="http://www.w3.org/1999/xlink" overflow="hidden"><defs><filter id="fx0" x="-10%" y="-10%" width="120%" height="120%" filterUnits="userSpaceOnUse" primitiveUnits="userSpaceOnUse"><feComponentTransfer color-interpolation-filters="sRGB"><feFuncR type="discrete" tableValues="0 0"/><feFuncG type="discrete" tableValues="0 0"/><feFuncB type="discrete" tableValues="0 0"/><feFuncA type="linear" slope="0.501961" intercept="0"/></feComponentTransfer><feGaussianBlur stdDeviation="2 2"/></filter><clipPath id="clip1"><rect x="596" y="153" width="234" height="90"/></clipPath><clipPath id="clip2"><rect x="-2" y="-2" width="94" height="94"/></clipPath><clipPath id="clip3"><rect x="0" y="0" width="91" height="90"/></clipPath></defs><g clip-path="url(#clip1)" transform="translate(-596 -153)"><g clip-path="url(#clip2)" filter="url(#fx0)" transform="translate(668 153)"><g clip-path="url(#clip3)"><path d="M83.5001 45 68.1655 50.3816 68.1655 39.6185ZM72.3674 18.4827 65.3823 32.99 57.6703 25.3794ZM45.5001 7.50005 50.9534 22.6328 40.0467 22.6328ZM18.6291 18.4827 33.3298 25.3794 25.6178 32.99ZM7.50006 45 22.8346 39.6185 22.8346 50.3816ZM18.6291 71.5139 25.6178 57.0101 33.3298 64.6207ZM45.5001 82.5 40.0467 67.3672 50.9534 67.3672ZM72.3674 71.5139 57.6703 64.6207 65.3823 57.0101ZM26.5001 45C26.5001 34.6447 35.0067 26.25 45.5001 26.25 55.9935 26.25 64.5001 34.6447 64.5001 45 64.5001 55.3554 55.9935 63.75 45.5001 63.75 35.0067 63.75 26.5001 55.3554 26.5001 45Z" stroke="#595959" stroke-linejoin="round" stroke-miterlimit="10" fill="#00FF00" fill-rule="evenodd" fill-opacity="0.376471"/></g></g><path d="M751.5 196 736.166 201.382 736.166 190.618ZM740.367 169.483 733.382 183.99 725.67 176.379ZM713.5 158.5 718.953 173.633 708.047 173.633ZM686.629 169.483 701.33 176.379 693.618 183.99ZM675.5 196 690.835 190.618 690.835 201.382ZM686.629 222.514 693.618 208.01 701.33 215.621ZM713.5 233.5 708.047 218.367 718.953 218.367ZM740.367 222.514 725.67 215.621 733.382 208.01ZM694.5 196C694.5 185.645 703.007 177.25 713.5 177.25 723.993 177.25 732.5 185.645 732.5 196 732.5 206.355 723.993 214.75 713.5 214.75 703.007 214.75 694.5 206.355 694.5 196Z" stroke="#595959" stroke-linejoin="round" stroke-miterlimit="10" fill="#00FF00" fill-rule="evenodd" fill-opacity="0.376471"/></g></svg>